<?xml version="1.0" standalone="no"?>
<!DOCTYPE svg PUBLIC "-//W3C//DTD SVG 20010904//EN"
 "http://www.w3.org/TR/2001/REC-SVG-20010904/DTD/svg10.dtd">
<svg version="1.0" xmlns="http://www.w3.org/2000/svg"
 width="208.000000pt" height="208.000000pt" viewBox="0 0 208.000000 208.000000"
 preserveAspectRatio="xMidYMid meet">
<metadata>
Created by potrace 1.14, written by Peter Selinger 2001-2017
</metadata>
<g transform="translate(0.000000,208.000000) scale(0.100000,-0.100000)"
fill="#000000" stroke="none">
<path d="M50 2067 c-49 -25 -50 -31 -50 -508 0 -390 2 -448 15 -459 13 -11 35
-11 118 1 123 17 362 17 472 0 127 -20 270 -59 405 -111 223 -86 379 -121 593
-136 59 -4 107 -10 107 -13 0 -4 -11 -34 -24 -67 -48 -123 -143 -244 -248
-316 -32 -21 -64 -41 -73 -44 -9 -4 -32 13 -64 48 -28 30 -70 66 -95 79 l-46
24 0 112 c0 62 2 113 5 113 2 0 30 -12 60 -27 64 -32 90 -25 90 23 0 25 -8 32
-85 70 -116 57 -265 108 -412 140 -101 22 -158 27 -315 31 -207 6 -223 3 -223
-43 0 -12 6 -26 13 -31 6 -4 80 -8 162 -9 147 -2 318 -22 406 -47 l44 -13 3
-161 2 -161 -43 -21 c-41 -20 -100 -72 -131 -115 -13 -19 -16 -18 -80 23 -95
62 -185 164 -241 272 -26 50 -54 93 -62 96 -8 3 -27 2 -42 -3 -92 -33 55 -294
247 -436 66 -49 198 -112 277 -133 184 -49 401 -24 577 65 185 94 346 288 403
485 9 30 19 56 23 59 4 2 40 7 80 10 l72 7 0 -390 0 -391 -950 0 -950 0 0 379
c0 332 -2 382 -16 395 -20 20 -38 20 -59 0 -14 -14 -15 -60 -13 -415 l3 -398
23 -23 23 -23 985 -3 985 -2 30 29 29 29 0 446 c0 425 -1 446 -19 455 -13 7
-52 6 -127 -4 -269 -36 -547 -8 -791 81 -247 89 -306 107 -418 131 -66 13
-174 28 -240 31 -142 8 -137 -1 -68 140 31 64 64 112 109 160 l63 67 1 -127
c0 -69 3 -133 6 -142 4 -9 18 -16 34 -16 16 0 30 7 34 16 3 9 6 72 6 142 0 76
4 122 9 117 5 -6 30 -61 55 -124 42 -106 45 -116 30 -132 -32 -36 -11 -63 78
-104 237 -109 438 -154 720 -162 164 -5 191 -3 213 11 27 18 33 47 12 65 -8 6
-75 12 -168 13 l-154 3 -3 223 c-2 170 0 222 9 222 17 0 97 -84 139 -145 18
-26 48 -79 66 -117 30 -61 37 -68 63 -68 34 0 61 23 61 52 0 61 -119 250 -208
329 -340 303 -835 287 -1143 -38 -92 -96 -176 -246 -195 -349 -5 -26 -11 -34
-28 -35 -11 0 -47 -4 -78 -8 l-58 -7 0 403 0 403 950 0 950 0 0 -391 c0 -250
4 -397 10 -410 12 -21 50 -25 68 -7 9 9 12 117 12 424 l0 413 -24 28 -24 28
-979 2 c-772 2 -983 0 -1003 -10z m1038 -346 l32 -1 0 -177 c0 -99 -4 -173 -9
-168 -14 17 -141 337 -136 345 2 4 21 6 42 4 21 -1 53 -3 71 -3z m-228 -186
c0 -91 -4 -165 -9 -165 -9 0 -125 279 -119 285 7 7 104 44 116 44 9 1 12 -38
12 -164z m470 125 l60 -30 0 -137 c0 -85 -4 -133 -9 -128 -6 6 -35 73 -66 149
-31 77 -60 148 -66 158 -15 27 11 23 81 -12z m-311 -274 c39 -99 70 -183 69
-187 -2 -4 -34 5 -73 19 l-70 27 -5 52 c-5 48 -1 278 5 271 1 -2 35 -84 74
-182z m280 -42 c45 -111 81 -205 81 -209 0 -7 -27 -4 -127 16 l-53 10 0 202
c0 121 4 197 9 192 5 -6 46 -101 90 -211z m-255 -504 l45 -19 -2 -118 -2 -118
-50 0 -50 0 -3 138 c-1 81 1 137 7 137 5 0 30 -9 55 -20z m42 -365 c3 -12 4
-48 2 -81 l-3 -59 -50 0 -50 0 -3 82 -3 82 28 3 c48 5 73 -3 79 -27z m-176
-71 c0 -62 -10 -67 -78 -38 l-37 15 48 45 c26 25 52 42 57 39 6 -3 10 -31 10
-61z m315 25 c25 -23 45 -45 45 -50 0 -10 -91 -39 -102 -32 -12 7 -9 123 2
123 6 0 31 -19 55 -41z"/>
</g>
</svg>
