<?xml version="1.0" standalone="no"?>
<!DOCTYPE svg PUBLIC "-//W3C//DTD SVG 20010904//EN"
 "http://www.w3.org/TR/2001/REC-SVG-20010904/DTD/svg10.dtd">
<svg version="1.0" xmlns="http://www.w3.org/2000/svg"
 width="208.000000pt" height="208.000000pt" viewBox="0 0 208.000000 208.000000"
 preserveAspectRatio="xMidYMid meet">

<g transform="translate(0.000000,208.000000) scale(0.100000,-0.100000)"
fill="#000000" stroke="none">
<path d="M51 2066 c-50 -28 -50 -30 -51 -507 0 -386 2 -448 15 -459 12 -10 34
-10 113 1 55 8 167 13 257 13 252 -3 353 -25 722 -158 144 -52 295 -84 461
-98 l143 -12 -7 -30 c-7 -35 -57 -137 -85 -178 -22 -30 -24 -43 -7 -32 7 4 8
3 4 -5 -4 -6 -11 -9 -15 -7 -4 3 -28 -15 -52 -40 -54 -56 -167 -144 -185 -144
-7 0 -37 24 -66 54 -30 29 -73 63 -96 75 l-42 21 0 110 c0 89 -3 110 -14 110
-8 0 -17 4 -20 9 -9 14 53 -3 107 -30 55 -27 80 -20 85 24 3 24 -5 30 -90 73
-114 57 -289 115 -434 144 -131 27 -456 40 -492 21 -24 -13 -30 -55 -10 -67 7
-4 80 -9 163 -9 158 -2 267 -14 381 -43 l69 -17 3 -163 2 -162 -24 -12 c-14
-6 -23 -14 -21 -18 3 -4 -3 -7 -13 -6 -9 0 -16 -5 -14 -12 1 -8 -1 -11 -6 -8
-14 9 -54 -25 -48 -41 4 -9 2 -11 -6 -7 -6 4 -21 -5 -34 -21 l-23 -29 -36 20
c-21 10 -62 40 -92 67 -56 49 -80 62 -48 27 17 -18 17 -20 2 -14 -16 6 -21 18
-18 38 2 12 -30 47 -39 41 -4 -2 -7 1 -7 8 0 21 -35 67 -46 60 -6 -3 -7 -1 -3
5 9 15 -22 75 -34 67 -6 -3 -7 1 -4 9 9 23 -24 75 -52 82 -31 8 -64 -19 -64
-53 0 -45 102 -229 120 -218 5 3 12 0 16 -6 4 -8 3 -9 -4 -5 -32 20 -5 -18 56
-76 76 -74 189 -151 210 -143 7 2 11 1 8 -4 -3 -5 18 -18 47 -30 140 -56 298
-73 443 -47 99 17 207 54 198 67 -3 5 3 6 12 2 13 -5 15 -3 9 7 -5 9 -4 11 3
6 13 -8 75 21 68 32 -3 5 0 14 6 22 8 12 9 12 4 -3 -8 -24 0 -22 53 17 84 62
211 212 211 249 0 8 6 20 14 26 20 17 59 127 50 142 -5 8 -3 10 5 4 9 -5 12
-2 9 11 -3 14 -11 18 -33 16 -37 -4 -28 7 11 14 103 17 142 23 167 23 l27 1 0
-390 0 -390 -950 0 -950 0 0 379 c0 332 -2 382 -16 395 -20 20 -38 20 -58 0
-14 -13 -16 -64 -16 -400 0 -420 1 -430 57 -453 21 -8 282 -11 1001 -9 l974 3
24 28 24 28 0 439 c0 385 -2 440 -16 454 -8 9 -25 14 -37 11 -86 -18 -257 -27
-395 -22 -182 7 -331 35 -487 92 -298 108 -366 127 -528 150 -56 8 -133 15
-172 16 -38 0 -79 4 -90 9 -17 7 -17 9 -2 9 9 1 17 7 17 14 0 20 66 153 102
205 18 26 32 51 30 55 -1 5 2 6 7 3 5 -3 15 1 22 10 10 13 10 17 0 24 -9 5
-10 10 -2 14 6 4 11 2 11 -5 0 -7 8 -6 25 5 13 9 26 16 27 16 2 0 2 -53 0
-117 -4 -142 0 -163 32 -163 43 0 48 19 44 168 -4 162 -2 162 66 -12 43 -111
45 -120 30 -137 -11 -12 -14 -27 -10 -42 5 -20 26 -34 108 -70 256 -111 474
-157 753 -157 149 0 185 10 185 49 0 35 -23 41 -151 40 -130 -2 -239 8 -239
21 0 4 11 5 25 2 l25 -4 0 201 c0 159 -3 201 -12 195 -10 -6 -10 -4 0 7 15 16
16 33 0 23 -7 -4 -8 -3 -4 4 4 7 15 8 30 2 13 -5 27 -6 32 -2 4 4 5 2 1 -4 -3
-5 7 -23 24 -38 16 -15 43 -47 61 -72 24 -34 34 -41 45 -33 7 6 13 8 13 3 0
-5 4 -3 9 5 7 10 9 6 8 -13 -2 -22 -4 -24 -14 -11 -17 24 -27 -1 -10 -25 8
-11 17 -17 22 -12 5 4 5 2 1 -5 -7 -12 19 -77 43 -105 27 -34 91 -10 91 34 0
45 -113 243 -132 231 -6 -3 -8 -2 -5 4 9 14 -65 93 -92 98 -14 3 -32 -1 -40
-8 -14 -11 -14 -10 -2 6 8 10 21 15 30 12 30 -10 -47 53 -107 88 -131 77 -319
124 -457 114 -44 -4 -116 -15 -159 -27 -96 -24 -218 -79 -209 -93 3 -6 2 -7
-4 -4 -5 3 -26 -5 -47 -19 -28 -19 -35 -29 -27 -38 8 -9 7 -13 -4 -13 -8 0
-11 5 -8 10 3 5 0 7 -8 5 -8 -3 -13 -11 -11 -17 1 -7 -1 -10 -6 -7 -12 7 -54
-38 -45 -49 5 -4 3 -5 -3 -2 -21 12 -122 -122 -108 -144 4 -8 3 -9 -5 -5 -13
9 -73 -112 -91 -186 l-12 -46 -56 -7 c-32 -3 -67 -9 -79 -12 l-23 -5 0 406 0
406 950 0 950 0 0 -394 c0 -345 2 -397 16 -410 18 -19 45 -21 62 -4 9 9 12
117 12 424 l0 413 -24 28 -24 28 -979 2 c-799 2 -982 0 -1002 -11z m986 -252
c-3 -3 -12 -4 -19 -1 -8 3 -5 6 6 6 11 1 17 -2 13 -5z m108 -24 c3 -5 -1 -10
-9 -10 -9 0 -16 5 -16 10 0 6 4 10 9 10 6 0 13 -4 16 -10z m-363 -45 c-2 -14
-8 -25 -13 -25 -14 0 -11 38 4 43 6 3 13 6 13 6 1 1 -1 -10 -4 -24z m78 -5 c0
-11 -2 -20 -4 -20 -2 0 -6 9 -9 20 -3 11 -1 20 4 20 5 0 9 -9 9 -20z m120 10
c0 -5 -2 -10 -4 -10 -3 0 -8 5 -11 10 -3 6 -1 10 4 10 6 0 11 -4 11 -10z m290
-20 c-8 -5 -19 -6 -25 -2 -6 4 -3 8 8 10 10 2 14 9 11 15 -4 7 -2 7 7 -1 12
-11 12 -14 -1 -22z m-570 -10 c0 -4 -7 -11 -16 -14 -13 -5 -14 -4 -6 7 7 8 8
18 4 22 -4 5 -1 5 6 1 6 -4 12 -11 12 -16z m140 3 c0 -10 -4 -14 -8 -8 -4 6
-11 13 -16 18 -5 4 -2 7 7 7 10 0 17 -8 17 -17z m278 -174 c2 -154 0 -177 -13
-183 -13 -5 -15 -1 -10 15 5 16 4 19 -5 14 -8 -5 -11 -4 -6 3 10 16 -53 174
-66 166 -7 -4 -8 -2 -4 5 8 12 -18 90 -41 128 -18 28 -7 32 77 30 l65 -2 3
-176z m-298 161 c0 -5 -2 -10 -4 -10 -3 0 -8 5 -11 10 -3 6 -1 10 4 10 6 0 11
-4 11 -10z m656 -23 c6 -9 4 -9 -8 1 -8 7 -22 11 -29 9 -8 -2 -11 -2 -6 0 4 3
4 9 1 15 -4 6 2 6 14 -1 12 -6 24 -17 28 -24z m-781 3 c-3 -5 -14 -10 -23 -9
-14 0 -13 2 3 9 27 11 27 11 20 0z m165 -159 c0 -168 0 -170 23 -173 20 -3 20
-4 -5 -9 -15 -3 -27 -3 -26 0 2 19 -4 22 -19 10 -16 -12 -17 -12 -6 1 9 12 5
29 -15 80 -14 36 -30 68 -36 72 -6 4 -8 8 -4 8 4 0 3 12 -3 28 -37 90 -46 123
-38 128 5 3 13 3 18 -1 6 -3 25 1 43 9 70 31 68 35 68 -153z m360 159 c0 -5
-2 -10 -4 -10 -3 0 -8 5 -11 10 -3 6 -1 10 4 10 6 0 11 -4 11 -10z m108 -26
l62 -27 0 -139 c0 -77 -4 -138 -9 -138 -5 0 -17 23 -26 50 -10 30 -21 48 -27
44 -7 -4 -8 -2 -4 4 3 6 -13 61 -38 121 -26 66 -40 111 -33 111 7 0 40 -12 75
-26z m86 9 c3 -10 9 -25 13 -33 5 -11 2 -11 -10 2 -10 9 -17 22 -17 28 0 6 -5
8 -10 5 -6 -4 -7 -11 -4 -17 4 -6 -2 -6 -15 1 -24 13 -29 23 -7 15 8 -3 17 -1
21 5 9 16 22 13 29 -6z m-180 -43 c-5 -5 -10 3 -11 18 -1 22 0 24 9 8 6 -10 6
-22 2 -26z m-587 15 c8 -9 13 -19 10 -22 -6 -5 -37 21 -37 31 0 10 11 6 27 -9z
m333 -15 c0 -10 -4 -21 -9 -24 -4 -3 -8 8 -7 23 1 31 16 32 16 1z m-430 -14
c-7 -7 -4 -15 11 -26 20 -16 20 -17 2 -31 -17 -13 -17 -13 -3 5 14 18 13 19
-2 13 -12 -4 -18 -1 -18 9 0 9 -5 12 -12 8 -10 -6 -10 -5 -1 8 7 8 11 17 8 20
-3 2 2 5 10 5 11 0 13 -3 5 -11z m-42 -16 c-7 -10 -14 -17 -17 -15 -4 4 18 35
25 35 2 0 -1 -9 -8 -20z m142 -44 c0 -6 -7 -1 -15 10 -8 10 -15 23 -15 28 0 6
7 1 15 -10 8 -10 15 -23 15 -28z m845 34 c-3 -5 -11 -10 -16 -10 -6 0 -7 5 -4
10 3 6 11 10 16 10 6 0 7 -4 4 -10z m-589 -33 c8 3 14 0 14 -7 0 -6 -4 -8 -10
-5 -5 3 -10 -2 -11 -12 0 -16 -1 -16 -9 2 -5 11 -8 27 -8 35 0 11 2 10 5 -2 2
-10 10 -15 19 -11z m48 12 c-2 -3 29 -89 70 -190 40 -101 72 -185 71 -187 -3
-4 -149 49 -158 58 -4 4 -9 79 -10 166 -2 144 0 160 15 160 9 0 15 -3 12 -7z
m272 -7 c-7 -22 97 -285 109 -275 4 5 5 3 2 -4 -9 -15 33 -124 45 -117 5 3 7
12 4 20 -8 22 2 17 15 -7 9 -17 8 -20 -2 -14 -9 6 -11 3 -6 -9 4 -10 3 -15 -3
-11 -6 3 -10 1 -10 -6 0 -12 -31 -9 -130 12 l-50 11 0 194 c0 142 3 199 13
209 16 19 19 18 13 -3z m194 -14 c0 -5 -4 -8 -10 -8 -5 0 -10 10 -10 23 0 18
2 19 10 7 5 -8 10 -18 10 -22z m164 16 c8 -22 8 -24 -6 -24 -6 0 -8 3 -5 7 4
3 2 12 -4 20 -7 8 -8 13 -1 13 5 0 13 -7 16 -16z m-1114 -2 c0 -5 -7 -9 -15
-9 -8 0 -12 4 -9 9 3 4 9 8 15 8 5 0 9 -4 9 -8z m1171 -34 c-11 -11 -13 -10
-7 0 4 7 2 21 -5 30 -12 15 -11 15 6 0 16 -15 17 -20 6 -30z m-1018 15 c-5
-12 -3 -14 7 -8 9 5 11 4 6 -3 -4 -7 -2 -12 4 -12 6 0 8 -5 4 -11 -5 -8 -10
-6 -16 5 -5 9 -14 14 -20 10 -6 -4 -6 2 1 15 14 25 23 28 14 4z m927 7 c0 -5
-2 -10 -4 -10 -3 0 -8 5 -11 10 -3 6 -1 10 4 10 6 0 11 -4 11 -10z m-803 -22
c-3 -8 -6 -5 -6 6 -1 11 2 17 5 13 3 -3 4 -12 1 -19z m267 7 c3 -8 1 -15 -4
-15 -6 0 -10 7 -10 15 0 8 2 15 4 15 2 0 6 -7 10 -15z m601 6 c3 -5 2 -12 -3
-15 -5 -3 -9 1 -9 9 0 17 3 19 12 6z m-1160 -10 c-9 -8 -36 -10 -30 -2 2 4 11
8 20 8 8 0 13 -3 10 -6z m809 -7 c5 -14 4 -15 -9 -4 -17 14 -19 20 -6 20 5 0
12 -7 15 -16z m-750 -2 c3 -5 -1 -9 -9 -9 -8 0 -12 4 -9 9 3 4 7 8 9 8 2 0 6
-4 9 -8z m1080 -10 c3 -5 -1 -9 -9 -9 -8 0 -12 4 -9 9 3 4 7 8 9 8 2 0 6 -4 9
-8z m-1109 -22 c-3 -5 -10 -10 -16 -10 -5 0 -9 5 -9 10 0 6 7 10 16 10 8 0 12
-4 9 -10z m167 -12 c-7 -7 -12 -8 -12 -2 0 14 12 26 19 19 2 -3 -1 -11 -7 -17z
m618 -13 c0 -5 -5 -3 -10 5 -5 8 -10 20 -10 25 0 6 5 3 10 -5 5 -8 10 -19 10
-25z m20 25 c0 -5 -2 -10 -4 -10 -3 0 -8 5 -11 10 -3 6 -1 10 4 10 6 0 11 -4
11 -10z m-663 -32 c-3 -8 -6 -5 -6 6 -1 11 2 17 5 13 3 -3 4 -12 1 -19z m273
2 c0 -11 -7 -20 -15 -20 -18 0 -19 6 -2 25 16 19 17 18 17 -5z m-514 -25 c0
-19 -1 -35 -2 -35 -1 0 -7 14 -13 30 -6 18 -6 28 -1 25 6 -4 10 -1 10 4 0 6 1
11 3 11 2 0 3 -16 3 -35z m637 20 c-3 -9 -8 -14 -10 -11 -3 3 -2 9 2 15 9 16
15 13 8 -4z m691 7 c3 -5 -1 -9 -9 -9 -8 0 -12 4 -9 9 3 4 7 8 9 8 2 0 6 -4 9
-8z m-1067 -34 c-3 -8 -6 -5 -6 6 -1 11 2 17 5 13 3 -3 4 -12 1 -19z m270 -40
c-3 -7 -5 -2 -5 12 0 14 2 19 5 13 2 -7 2 -19 0 -25z m-543 -14 c3 -8 2 -12
-4 -9 -6 3 -10 10 -10 16 0 14 7 11 14 -7z m278 -26 c-8 -8 -9 -4 -5 13 4 13
8 18 11 10 2 -7 -1 -18 -6 -23z m410 -3 c-8 -16 -9 -16 -15 -1 -4 10 -3 15 3
11 6 -3 10 -1 10 6 0 7 3 10 6 6 3 -3 2 -13 -4 -22z m662 -1 c5 -14 4 -15 -9
-4 -17 14 -19 20 -6 20 5 0 12 -7 15 -16z m-1069 -26 c5 4 5 1 1 -6 -4 -7 -11
-10 -16 -7 -4 3 -10 -1 -13 -7 -2 -7 -4 -1 -3 15 1 22 3 25 12 12 6 -8 15 -11
19 -7z m182 0 c18 -7 33 -16 33 -21 0 -5 6 -7 14 -4 8 3 17 0 20 -8 6 -16 0
-14 -68 20 -53 27 -53 32 1 13z m240 -10 c-3 -8 -6 -5 -6 6 -1 11 2 17 5 13 3
-3 4 -12 1 -19z m628 12 c3 -5 1 -10 -4 -10 -6 0 -11 5 -11 10 0 6 2 10 4 10
3 0 8 -4 11 -10z m-1357 -36 c-3 -14 -5 -12 -10 9 -3 19 -2 25 4 19 6 -6 8
-18 6 -28z m1002 26 c0 -5 -2 -10 -4 -10 -3 0 -8 5 -11 10 -3 6 -1 10 4 10 6
0 11 -4 11 -10z m-1049 -33 c-10 -9 -11 -8 -5 6 3 10 9 15 12 12 3 -3 0 -11
-7 -18z m1463 -1 c-7 -19 -25 -22 -21 -3 2 12 19 28 24 23 2 -2 1 -11 -3 -20z
m-641 1 c4 3 7 1 7 -5 0 -17 -16 -15 -31 6 -12 15 -12 16 2 5 9 -7 19 -10 22
-6z m-14 -26 c7 -5 9 -11 5 -14 -5 -3 -15 1 -22 9 -14 16 -5 18 17 5z m-749
-5 c0 -3 -4 -8 -10 -11 -5 -3 -10 -1 -10 4 0 6 5 11 10 11 6 0 10 -2 10 -4z
m-30 -28 c0 -4 -17 -8 -37 -7 -33 1 -35 2 -13 8 33 10 50 9 50 -1z m825 -28
c13 -5 14 -9 5 -9 -8 0 -24 4 -35 9 -13 5 -14 9 -5 9 8 0 24 -4 35 -9z m-200
-330 c18 -8 17 -9 -7 -9 -16 -1 -28 4 -28 9 0 12 8 12 35 0z m93 -20 l42 -19
0 -121 0 -120 -55 0 -55 0 0 140 c0 155 -2 152 68 120z m694 -9 c-7 -4 -12
-12 -11 -17 1 -5 0 -25 -1 -44 l-3 -35 -6 35 c-9 46 -3 70 18 70 12 0 13 -2 3
-9z m48 -55 c0 -6 -4 -5 -9 3 -7 11 -9 11 -14 0 -2 -8 -4 -2 -3 14 1 24 2 25
14 10 6 -9 12 -22 12 -27z m-863 -109 c-2 -23 -3 -1 -3 48 0 50 1 68 3 42 2
-26 2 -67 0 -90z m-626 100 c-10 -9 -11 -8 -5 6 3 10 9 15 12 12 3 -3 0 -11
-7 -18z m849 -7 c0 -5 -7 -7 -15 -4 -8 4 -15 8 -15 10 0 2 7 4 15 4 8 0 15 -4
15 -10z m605 -40 c-8 -13 -25 -13 -25 1 0 5 5 7 11 3 8 -4 9 1 5 17 -6 20 -5
21 4 6 6 -9 8 -22 5 -27z m-41 -16 c5 -14 4 -15 -9 -4 -17 14 -19 20 -6 20 5
0 12 -7 15 -16z m9 -80 c-3 -8 -9 -11 -15 -8 -5 3 -7 12 -4 19 3 8 -2 19 -10
25 -8 7 -14 18 -14 24 1 6 11 -2 24 -18 14 -16 22 -35 19 -42z m-1308 -12 c3
-13 4 -27 0 -30 -3 -3 -5 2 -5 11 0 20 -16 23 -24 5 -3 -7 -3 -2 0 11 5 17 3
21 -6 16 -8 -5 -11 -4 -7 2 11 18 36 10 42 -15z m1242 6 c-3 -8 -6 -5 -6 6 -1
11 2 17 5 13 3 -3 4 -12 1 -19z m25 -10 c-7 -7 -12 -8 -12 -2 0 14 12 26 19
19 2 -3 -1 -11 -7 -17z m-32 -12 c0 -2 -7 -9 -15 -16 -13 -11 -14 -10 -9 4 5
14 24 23 24 12z m60 0 c0 -3 -4 -8 -10 -11 -5 -3 -10 -1 -10 4 0 6 5 11 10 11
6 0 10 -2 10 -4z m-1250 -31 c0 -8 -5 -15 -11 -15 -5 0 -7 -6 -3 -12 5 -9 2
-9 -9 1 -9 7 -17 19 -17 25 0 6 5 4 10 -4 9 -13 14 -7 11 13 0 4 4 7 9 7 6 0
10 -7 10 -15z m470 -5 c0 -10 -9 -24 -20 -30 -14 -7 -20 -7 -20 0 0 5 7 10 15
10 8 0 15 9 15 20 0 11 2 20 5 20 3 0 5 -9 5 -20z m694 -8 c2 7 4 2 3 -12 -1
-15 3 -24 10 -23 7 2 10 -3 7 -10 -3 -8 -11 -14 -19 -14 -8 0 -12 4 -9 9 3 5
-4 25 -15 46 -19 33 -19 35 -2 14 13 -15 21 -18 25 -10z m-494 -3 c0 -6 -4 -7
-10 -4 -5 3 -10 11 -10 16 0 6 5 7 10 4 6 -3 10 -11 10 -16z m543 -2 c4 3 7 4
7 0 0 -18 -21 -14 -30 5 -10 21 -10 21 3 6 8 -10 17 -15 20 -11z m-458 -36 c3
-5 0 -13 -6 -17 -8 -4 -9 -3 -5 4 4 7 -3 16 -17 21 -14 6 -28 15 -32 21 -4 7
6 5 23 -4 17 -9 33 -20 37 -25z m356 14 c5 4 6 -1 2 -10 -4 -13 -8 -14 -13 -4
-6 9 -12 8 -25 -4 -9 -10 -21 -17 -26 -17 -6 0 3 11 18 24 15 14 30 20 31 15
2 -5 8 -7 13 -4z m-631 -10 c-7 -8 -17 -15 -22 -15 -6 0 -5 7 2 15 7 8 17 15
22 15 6 0 5 -7 -2 -15z m27 -13 c-15 -16 -24 -32 -20 -36 4 -4 0 -4 -10 0 -24
9 -21 19 8 32 14 6 25 16 25 22 0 5 5 10 12 10 6 0 0 -13 -15 -28z m-498 0 c7
-13 6 -19 -2 -19 -7 0 -13 9 -13 19 0 10 1 18 3 18 1 0 7 -8 12 -18z m664 10
c-9 -6 -7 -12 7 -25 11 -9 26 -17 32 -17 7 0 24 -12 40 -27 24 -23 29 -24 45
-12 16 13 17 12 5 -3 -15 -18 -7 -42 10 -32 6 4 6 0 -1 -13 -6 -11 -9 -22 -6
-24 2 -2 -6 -4 -18 -5 -12 0 -35 -2 -52 -5 -30 -4 -30 -4 -33 51 -3 55 -25 95
-45 83 -6 -3 -7 -1 -3 5 4 7 1 12 -6 12 -9 0 -9 3 2 10 8 5 20 10 25 10 6 0 4
-4 -2 -8z m-248 -12 c-3 -5 -12 -10 -18 -10 -7 0 -6 4 3 10 19 12 23 12 15 0z
m183 4 c22 -6 23 -10 20 -88 l-3 -81 -52 -3 -53 -3 0 84 c0 46 3 87 7 90 8 9
50 9 81 1z m-449 -51 c9 -8 10 -13 4 -13 -7 0 -22 15 -34 33 -16 23 -17 27 -3
12 10 -11 25 -26 33 -32z m641 25 c0 -5 4 -7 8 -4 5 3 9 -2 9 -10 0 -10 -4
-11 -10 -5 -7 7 -15 5 -24 -7 -10 -13 -13 -14 -11 -2 2 10 -4 14 -16 12 -11
-2 -15 1 -11 8 4 6 16 8 28 4 20 -6 20 -5 8 10 -12 14 -12 16 3 10 9 -3 16
-10 16 -16z m-711 -21 c-15 -16 -22 -18 -31 -9 -15 15 -32 16 -23 2 9 -15 -1
-12 -14 3 -8 11 -7 14 7 14 9 0 23 -4 30 -10 10 -8 16 -7 22 3 5 8 6 18 4 22
-3 4 2 5 10 2 13 -5 12 -9 -5 -27z m296 23 c-3 -5 -1 -10 6 -10 7 0 10 -3 6
-6 -9 -9 -28 6 -22 17 4 5 8 9 11 9 3 0 2 -4 -1 -10z m710 0 c3 -5 1 -10 -4
-10 -6 0 -11 5 -11 10 0 6 2 10 4 10 3 0 8 -4 11 -10z m39 -2 c-3 -4 -9 -8
-15 -8 -5 0 -9 4 -9 8 0 5 7 9 15 9 8 0 12 -4 9 -9z m-684 -66 c0 -32 -3 -61
-6 -65 -3 -3 -26 1 -51 8 -39 12 -44 12 -39 -1 3 -9 1 -12 -4 -9 -21 13 -8 44
35 84 24 22 49 41 55 41 6 0 10 -25 10 -58z m230 38 c6 -11 8 -20 6 -20 -3 0
-10 9 -16 20 -6 11 -8 20 -6 20 3 0 10 -9 16 -20z m-306 2 c2 -4 -4 -8 -14 -8
-10 0 -16 4 -14 8 3 4 9 8 14 8 5 0 11 -4 14 -8z m646 4 c0 -3 -4 -8 -10 -11
-5 -3 -10 -1 -10 4 0 6 5 11 10 11 6 0 10 -2 10 -4z m27 -18 c-3 -8 -6 -5 -6
6 -1 11 2 17 5 13 3 -3 4 -12 1 -19z m38 12 c3 -6 -1 -7 -9 -4 -18 7 -21 14
-7 14 6 0 13 -4 16 -10z m55 3 c0 -1 -8 -7 -18 -12 -13 -7 -19 -6 -19 2 0 7 9
13 19 13 10 0 18 -1 18 -3z m-1020 -13 c0 -5 -2 -10 -4 -10 -3 0 -8 5 -11 10
-3 6 -1 10 4 10 6 0 11 -4 11 -10z m870 -22 c-12 -5 -25 -6 -28 -3 -3 3 0 5 7
5 7 0 10 4 7 9 -4 5 4 7 16 3 l22 -5 -24 -9z m-663 -3 c0 -8 -4 -12 -9 -9 -5
3 -6 10 -3 15 9 13 12 11 12 -6z m150 -5 c-1 -11 -5 -20 -9 -20 -10 0 -10 4
-2 24 8 22 13 20 11 -4z m375 5 c3 0 9 -3 13 -7 4 -3 0 -5 -9 -4 -9 1 -22 8
-29 16 -10 10 -9 11 3 4 8 -5 18 -9 22 -9z m233 5 c4 -6 -1 -7 -11 -3 -13 5
-15 3 -9 -7 5 -9 4 -11 -4 -6 -6 4 -9 12 -6 17 8 12 22 12 30 -1z m-989 -22
l19 -23 -25 20 c-14 11 -27 21 -29 22 -2 2 0 3 6 3 5 0 18 -10 29 -22z m84 2
c0 -5 -9 -14 -19 -20 -18 -9 -21 -2 -12 28 3 7 31 0 31 -8z m500 -10 c0 -5 -5
-10 -11 -10 -5 0 -7 5 -4 10 3 6 8 10 11 10 2 0 4 -4 4 -10z m-420 -20 c0 -5
-5 -10 -11 -10 -5 0 -7 5 -4 10 3 6 8 10 11 10 2 0 4 -4 4 -10z m229 -4 c8
-10 9 -16 1 -21 -5 -3 -10 1 -10 10 0 9 -4 13 -10 10 -5 -3 -10 -1 -10 4 0 15
15 14 29 -3z m190 -40 c-3 -3 -11 5 -18 17 -13 21 -12 21 5 5 10 -10 16 -20
13 -22z m-239 -40 c0 -2 -7 -7 -16 -10 -8 -3 -12 -2 -9 4 6 10 25 14 25 6z
m327 -2 c-3 -3 -12 -4 -19 -1 -8 3 -5 6 6 6 11 1 17 -2 13 -5z m6 -21 c-7 -2
-19 -2 -25 0 -7 3 -2 5 12 5 14 0 19 -2 13 -5z"/>
</g>
</svg>
